<?xml version="1.0" standalone="no"?>
<!DOCTYPE svg PUBLIC "-//W3C//DTD SVG 20010904//EN"
 "http://www.w3.org/TR/2001/REC-SVG-20010904/DTD/svg10.dtd">
<svg version="1.0" xmlns="http://www.w3.org/2000/svg"
 width="1280.000000pt" height="1085.000000pt" viewBox="0 0 1280.000000 1085.000000"
 preserveAspectRatio="xMidYMid meet">
<metadata>
Created by potrace 1.15, written by Peter Selinger 2001-2017
</metadata>
<g transform="translate(0.000000,1085.000000) scale(0.100000,-0.100000)"
fill="red" stroke="none">
<path d="M3449 10837 c-20 -8 -49 -23 -65 -35 -59 -43 -3343 -3338 -3360
-3372 -23 -45 -24 -143 -2 -190 8 -19 431 -533 939 -1141 508 -608 1228 -1470
1599 -1915 371 -445 702 -840 734 -878 75 -87 142 -122 218 -113 68 8 126 43
163 97 l30 45 3 1166 2 1166 78 17 c328 69 819 116 1217 116 1668 -1 3233
-594 4555 -1725 1068 -914 1997 -2192 2736 -3768 117 -250 150 -289 256 -303
68 -9 126 12 179 65 74 73 77 95 45 346 -256 1983 -832 3673 -1689 4955 -571
853 -1262 1536 -2077 2052 -924 585 -2011 947 -3190 1063 -297 29 -484 37
-840 37 -443 -1 -800 -24 -1157 -76 l-83 -12 -2 1131 c-3 1030 -4 1133 -20
1160 -21 39 -65 83 -101 102 -41 21 -125 26 -168 10z"/>
</g>
</svg>
